<?xml version="1.0" encoding="UTF-8" standalone="no"?>
<svg
   height="24px"
   viewBox="0 -960 960 960"
   width="24px"
   fill="#000"
   version="1.1"
   id="svg150"
   sodipodi:docname="money.svg"
   inkscape:version="1.2.2 (b0a8486541, 2022-12-01)"
   inkscape:export-filename="money.png"
   inkscape:export-xdpi="1600"
   inkscape:export-ydpi="1600"
   xmlns:inkscape="http://www.inkscape.org/namespaces/inkscape"
   xmlns:sodipodi="http://sodipodi.sourceforge.net/DTD/sodipodi-0.dtd"
   xmlns="http://www.w3.org/2000/svg"
   xmlns:svg="http://www.w3.org/2000/svg">
  <defs
     id="defs154" />
  <sodipodi:namedview
     id="namedview152"
     pagecolor="#ffffff"
     bordercolor="#666666"
     borderopacity="1.0"
     inkscape:showpageshadow="2"
     inkscape:pageopacity="0.0"
     inkscape:pagecheckerboard="0"
     inkscape:deskcolor="#d1d1d1"
     showgrid="false"
     inkscape:zoom="55.208333"
     inkscape:cx="10.53283"
     inkscape:cy="12"
     inkscape:current-layer="svg150" />
  <path
     d="M441-120v-86q-53-12-91.5-46T293-348l74-30q15 48 44.5 73t77.5 25q41 0 69.5-18.5T587-356q0-35-22-55.5T463-458q-86-27-118-64.5T313-614q0-65 42-101t86-41v-84h80v84q50 8 82.5 36.5T651-650l-74 32q-12-32-34-48t-60-16q-44 0-67 19.5T393-614q0 33 30 52t104 40q69 20 104.5 63.5T667-358q0 71-42 108t-104 46v84h-80Z"
     id="path148"
     style="fill:#ffaf3b;fill-opacity:1" />
</svg>
